<svg width="918" height="413" viewBox="0 0 918 413" fill="none" xmlns="http://www.w3.org/2000/svg">
<path d="M79.5909 282.693L1095.76 335.948M155.741 206.543L1171.91 259.798M3.44095 358.843L1019.61 412.098M231.891 130.393L1248.06 183.648M308.041 54.2431L1324.21 107.498M384.191 -21.9069L1400.36 31.3482M813.934 402.019L1194.68 21.2698M1017.17 412.67L1397.92 31.9208M0.998798 359.415L381.748 -21.3344M407.466 380.717L788.216 -0.0322944M204.233 370.066L584.982 -10.6833M610.7 391.368L991.45 10.6187" stroke="url(#paint0_radial_0_1)"/>
<circle cx="567.142" cy="236.177" r="137.857" fill="#505ECE"/>
<mask id="mask0_0_1" style="mask-type:alpha" maskUnits="userSpaceOnUse" x="319" y="32" width="386" height="343">
<path d="M705 236.178C705 312.314 643.279 374.035 567.143 374.035C491.006 374.035 319 286.233 319 210.097C319 133.96 428.412 32 504.548 32C580.685 32 705 160.041 705 236.178Z" fill="#FF5A5F"/>
</mask>
<g mask="url(#mask0_0_1)">
<path d="M595.107 313.72H413.841C410.122 313.72 407.105 310.705 407.105 306.984H599.619V309.206C599.619 311.698 597.598 313.718 595.107 313.718V313.72Z" fill="#2C233D"/>
<path d="M415.378 308.668L407.395 308.94L371 138.574L377.841 137.102L415.378 308.668Z" fill="#2C233D"/>
<path d="M377.844 137.102L412.405 164.68L442.467 295.758L415.36 308.58L377.844 137.102Z" fill="#61616C"/>
<path d="M380.508 141.449L411.999 165.636L441.035 293.319L415.376 301.432L380.508 141.449Z" fill="#2C233D"/>
<path d="M599.62 306.984L575.466 295.758H442.465L414.703 308.672L599.62 306.984Z" fill="white"/>
<path d="M414.709 308.762C414.666 308.762 414.628 308.732 414.62 308.691C414.61 308.648 414.631 308.605 414.671 308.587L442.433 295.672C442.445 295.667 442.458 295.664 442.471 295.664H575.472C575.485 295.664 575.498 295.667 575.51 295.672L599.664 306.898C599.704 306.917 599.725 306.96 599.715 307.001C599.707 307.044 599.669 307.074 599.626 307.074L414.709 308.762V308.762ZM442.491 295.847L415.133 308.574L599.218 306.892L575.452 295.846H442.491V295.847Z" fill="#31313B"/>
<path d="M441.035 304.982H528.931L521.621 296.512H453.681L441.035 304.982Z" fill="#31313B"/>
<path d="M541.172 297.301H564.157C564.533 297.301 564.905 297.377 565.25 297.524L578.728 303.262C579.217 303.47 579.069 304.2 578.537 304.2H548.219C547.158 304.2 546.147 303.757 545.427 302.979L540.852 298.034C540.592 297.755 540.791 297.301 541.172 297.301V297.301Z" fill="white"/>
<path d="M578.543 304.291H548.225C547.143 304.291 546.1 303.835 545.365 303.041L540.79 298.096C540.645 297.939 540.608 297.721 540.694 297.524C540.78 297.329 540.965 297.207 541.18 297.207H564.164C564.554 297.207 564.936 297.285 565.294 297.438L578.772 303.176C579.073 303.305 579.161 303.596 579.114 303.827C579.066 304.058 578.873 304.291 578.546 304.291H578.543ZM541.178 297.392C541.012 297.392 540.906 297.499 540.863 297.599C540.82 297.699 540.813 297.85 540.926 297.972L545.5 302.917C546.201 303.673 547.194 304.108 548.225 304.108H578.543C578.782 304.108 578.901 303.938 578.931 303.791C578.961 303.644 578.918 303.44 578.698 303.346L565.22 297.608C564.883 297.465 564.528 297.392 564.161 297.392H541.177H541.178Z" fill="#31313B"/>
<path d="M464.748 296.09L455.906 305.621L456.176 305.872L465.018 296.34L464.748 296.09Z" fill="#EAEEF1"/>
<path d="M475.18 296.323L471.496 305.672L471.839 305.807L475.523 296.459L475.18 296.323Z" fill="#EAEEF1"/>
<path d="M486.672 296.182L486.305 296.211L487.042 305.745L487.409 305.717L486.672 296.182Z" fill="#EAEEF1"/>
<path d="M498.634 296.128L498.305 296.293L503.087 305.827L503.416 305.662L498.634 296.128Z" fill="#EAEEF1"/>
<path d="M510.372 296.18L510.07 296.391L516.669 305.836L516.971 305.625L510.372 296.18Z" fill="#EAEEF1"/>
<path d="M522.321 282.763C521.752 282.763 521.186 282.644 520.622 282.405C520.209 282.23 519.439 281.904 523.371 261.776C525.295 251.935 527.436 242.047 527.457 241.948L527.563 241.457L537.638 251.403L537.608 251.548C537.595 251.614 536.265 258.234 534.003 265.271C530.951 274.767 527.74 280.462 524.46 282.197C523.748 282.573 523.033 282.762 522.319 282.762L522.321 282.763ZM520.88 281.914C521.99 282.372 523.079 282.304 524.202 281.709C531.454 277.873 536.6 253.699 537.036 251.586L527.89 242.556C527.442 244.634 525.66 252.969 524.009 261.388C520.636 278.592 520.678 281.495 520.88 281.914Z" fill="#31313C"/>
<path d="M509.552 298.833C507.655 298.57 509.514 282.457 511.538 268.206C513.16 256.778 524.517 249.429 535.606 252.633L542.37 254.587C542.37 254.587 528.345 258.128 524.393 273.477C520.636 288.067 517.241 299.897 509.554 298.833H509.552Z" fill="white"/>
<path d="M492.23 283.073C492.082 283.073 491.939 283.07 491.795 283.065C488.945 282.956 486.627 281.737 484.902 279.442C484.671 279.135 484.811 278.631 486.226 277.073C487.162 276.04 488.603 274.613 490.508 272.829C493.71 269.832 498.271 265.781 504.064 260.793C513.924 252.301 524.076 243.915 524.177 243.832L524.563 243.512L526.549 259.268L526.466 259.362C526.414 259.423 521.079 265.475 514.19 271.385C505.146 279.143 497.761 283.073 492.23 283.073V283.073ZM485.37 279.143C486.986 281.278 489.155 282.411 491.816 282.513C491.949 282.518 492.084 282.522 492.218 282.522C498.934 282.522 507.647 276.27 513.829 270.965C520.225 265.478 525.272 259.873 525.969 259.09L524.14 244.577C522.224 246.165 513.507 253.396 504.895 260.806C487.541 275.733 485.429 278.611 485.37 279.145V279.143Z" fill="#31313C"/>
<path d="M510.581 299.216C510.251 299.216 509.915 299.193 509.572 299.145C509.392 299.12 509.236 299.021 509.106 298.849C507.913 297.268 508.658 286.957 511.321 268.205C512.106 262.679 515.244 257.771 519.931 254.739C524.616 251.707 530.379 250.857 535.74 252.406L543.482 254.643L542.494 254.893C542.459 254.901 538.975 255.805 535.061 258.552C531.456 261.083 526.736 265.745 524.717 273.583C522.807 280.998 521.039 287.517 518.751 292.184C516.413 296.952 513.796 299.216 510.581 299.216V299.216ZM509.648 298.598C516.869 299.594 520.226 288.804 524.182 273.446C526.245 265.435 531.074 260.672 534.762 258.086C537.593 256.1 540.156 255.074 541.458 254.632L535.586 252.935C530.379 251.43 524.781 252.256 520.23 255.2C515.678 258.144 512.63 262.912 511.868 268.281C508.405 292.673 508.927 297.694 509.547 298.515C509.569 298.543 509.61 298.591 509.646 298.596L509.648 298.598Z" fill="#31313C"/>
<path d="M504.063 262.832C510.766 253.209 522.427 244.867 540.694 230.999C551.345 222.914 581.155 229.666 615.8 229.359C636.425 229.177 685.759 230.829 687.437 227.008L661.411 247.099C651.827 264.243 639.516 280.345 627.24 279.922C627.008 279.914 588.401 270.523 588.596 270.394C595.824 265.605 587.243 260.128 548.875 255.548C544.416 255.016 537.329 260.058 528.693 263.417C523.031 265.62 523.411 270.612 515.704 274.947C511.404 277.368 505.667 299.463 491.884 294.271C489.624 293.42 500.359 268.147 504.06 262.832H504.063Z" fill="white"/>
<path d="M495.98 295.341C494.626 295.341 493.234 295.07 491.796 294.528C491.661 294.476 491.481 294.351 491.385 294.04C490.404 290.883 500.219 267.879 503.844 262.673C509.933 253.928 520.104 246.236 535.498 234.594C537.119 233.368 538.798 232.099 540.536 230.779C547.518 225.479 562.578 226.475 581.645 227.737C591.943 228.418 603.615 229.191 615.806 229.084C636.05 228.905 696.194 230.558 701.601 232.256L701.783 232.314L701.794 232.504L704.507 279.107L704.159 279.039C671.45 272.711 656.057 271.479 645.315 271.109C645.247 271.109 643.324 271.096 640.415 271.079C633.484 271.039 620.583 270.963 609.356 270.886C603.11 270.843 598.203 270.803 594.775 270.77C592.81 270.75 591.295 270.734 590.271 270.717C589.027 270.699 588.383 270.618 588.34 270.474L588.282 270.278L588.452 270.164C590.136 269.049 590.863 267.952 590.613 266.901C590.303 265.592 588.277 263.564 580.391 261.33C573.332 259.331 562.72 257.477 548.852 255.82C546.095 255.491 542.148 257.433 537.577 259.681C534.942 260.978 531.953 262.447 528.804 263.673C526.116 264.718 524.817 266.422 523.314 268.393C521.69 270.522 519.851 272.936 515.851 275.186C514.653 275.86 513.249 278.301 511.622 281.126C509.628 284.592 507.145 288.904 503.963 291.835C501.42 294.177 498.782 295.341 495.981 295.341H495.98ZM504.07 262.83L504.296 262.989C502.644 265.361 499.342 272.199 496.442 279.251C493.254 287.004 491.519 292.608 491.912 293.877C491.938 293.964 491.971 294.004 491.991 294.011C493.401 294.541 494.726 294.782 495.97 294.782C503.123 294.782 507.677 286.87 511.141 280.851C512.877 277.836 514.247 275.456 515.579 274.706C519.479 272.512 521.282 270.146 522.873 268.059C524.427 266.02 525.769 264.261 528.602 263.159C531.73 261.943 534.707 260.479 537.332 259.187C541.981 256.901 545.994 254.925 548.917 255.273C575.893 258.495 590.101 262.364 591.148 266.774C591.418 267.909 590.836 269.044 589.419 270.149C594.985 270.261 628.747 270.458 640.415 270.526C643.879 270.546 645.287 270.554 645.33 270.555C656.057 270.925 671.402 272.151 703.911 278.428L701.249 232.73C694.839 231.063 635.82 229.457 615.806 229.636C603.592 229.743 591.912 228.97 581.604 228.289C562.653 227.035 547.681 226.044 540.864 231.22C539.126 232.54 537.446 233.809 535.827 235.035C520.476 246.646 510.333 254.317 504.293 262.99L504.067 262.832L504.07 262.83Z" fill="#31313C"/>
<path d="M594.634 258.426C592.055 269.325 565.728 282.084 558.101 287.087C548.308 293.51 553.138 300.94 567.599 298.708C578.912 296.961 596.291 288.294 619.052 286.39C637.996 284.804 647.038 268.439 647.038 268.439L594.636 258.426H594.634Z" fill="white"/>
<path d="M562.71 299.19C557.616 299.19 553.972 297.724 552.961 295.094C551.969 292.514 553.833 289.361 557.947 286.663C559.465 285.669 561.833 284.278 564.575 282.67C575.605 276.201 594.065 265.373 594.355 258.409C594.361 258.26 594.483 258.144 594.63 258.144C594.634 258.144 594.639 258.144 594.642 258.144C594.794 258.151 594.913 258.28 594.906 258.432C594.773 261.654 591.182 265.794 583.931 271.089C577.88 275.508 570.353 279.923 564.854 283.148C562.118 284.752 559.754 286.14 558.249 287.126C554.368 289.672 552.584 292.576 553.476 294.898C554.025 296.323 555.579 297.452 557.853 298.075C560.398 298.772 563.754 298.83 567.554 298.243C571.727 297.599 576.748 296.003 582.562 294.154C592.413 291.022 604.674 287.124 619.026 285.923C628.725 285.112 635.753 280.318 639.943 276.44C644.492 272.229 646.77 268.156 646.793 268.115C646.867 267.981 647.034 267.933 647.168 268.008C647.302 268.082 647.35 268.249 647.277 268.383C647.254 268.424 644.943 272.563 640.335 276.833C636.081 280.777 628.938 285.651 619.074 286.475C604.783 287.671 592.555 291.559 582.73 294.683C576.895 296.538 571.854 298.141 567.64 298.792C565.888 299.063 564.235 299.193 562.711 299.193L562.71 299.19Z" fill="#31313C"/>
<path d="M706.961 221.441L648.124 228.491C648.124 228.491 641.879 273.118 661.115 282.487L709.474 288.257L706.961 221.441Z" fill="#FFC75A"/>
<path d="M434.651 312.171H425.812C425.204 312.171 424.707 311.674 424.707 311.066C424.707 310.458 425.204 309.961 425.812 309.961H434.651C435.259 309.961 435.756 310.458 435.756 311.066C435.756 311.674 435.259 312.171 434.651 312.171Z" fill="#61616C"/>
<path d="M448.034 312.171H439.195C438.587 312.171 438.09 311.674 438.09 311.066C438.09 310.458 438.587 309.961 439.195 309.961H448.034C448.642 309.961 449.139 310.458 449.139 311.066C449.139 311.674 448.642 312.171 448.034 312.171Z" fill="#61616C"/>
</g>
<defs>
<radialGradient id="paint0_radial_0_1" cx="0" cy="0" r="1" gradientUnits="userSpaceOnUse" gradientTransform="translate(-84.008 -517) rotate(44.1681) scale(1242.17 527818)">
<stop offset="0.0206027" stop-color="#505ECE"/>
<stop offset="1" stop-color="#505ECE" stop-opacity="0"/>
</radialGradient>
</defs>
</svg>
